<svg width="922" height="615" viewBox="0 0 922 615" fill="none" xmlns="http://www.w3.org/2000/svg">
<rect width="922" height="615" fill="#D9D9D9" fill-opacity="0.01"/>
<path d="M681.698 49.7596C683.073 50.145 686.321 51.4809 688.308 53.7421C690.792 56.5687 694.827 50.2903 694.638 49.3174C694.45 48.3446 698.487 46.6186 700.494 49.4085C702.502 52.1984 706.502 53.4645 708.657 48.8384C710.812 44.2123 712.668 45.3135 714.725 47.1488C716.783 48.9842 717.836 49.4246 719.278 49.296" stroke="#FF7C0D" stroke-width="4.75524"/>
<path d="M685.653 226.917L717.834 216.65L710.634 249.653L685.653 226.917Z" fill="url(#paint0_linear_556_1207)"/>
<rect x="298" y="31" width="380.468" height="183.989" rx="10" fill="white"/>
<circle cx="364.311" cy="108.824" r="44.6762" fill="#D1E4FF"/>
<path d="M408.988 108.824C408.988 118.25 406.006 127.435 400.47 135.064C394.933 142.693 387.126 148.376 378.164 151.298C369.202 154.221 359.546 154.234 350.576 151.336C341.606 148.438 333.783 142.777 328.226 135.164C322.668 127.55 319.661 118.373 319.635 108.947C319.609 99.5208 322.566 90.3279 328.081 82.6836C333.596 75.0393 341.388 69.3354 350.342 66.3879C359.296 63.4405 368.952 63.4006 377.93 66.2739L364.311 108.824H408.988Z" fill="#00FF57"/>
<path d="M408.988 108.824C408.988 118.25 406.006 127.435 400.47 135.064C394.933 142.693 387.126 148.376 378.164 151.298C369.202 154.221 359.546 154.234 350.576 151.336C341.606 148.438 333.783 142.777 328.226 135.164C322.668 127.55 319.661 118.373 319.635 108.947C319.609 99.5208 322.566 90.3279 328.081 82.6836C333.596 75.0393 341.388 69.3354 350.342 66.3879C359.296 63.4405 368.952 63.4006 377.93 66.2739L364.311 108.824H408.988Z" fill="#81C2FF"/>
<path d="M408.988 108.824C408.988 117.069 406.706 125.152 402.396 132.181L364.311 108.824H408.988Z" fill="#BAAFFB"/>
<path d="M408.988 108.824C408.988 113.062 408.385 117.279 407.197 121.347L364.311 108.824H408.988Z" fill="#7F91F0"/>
<rect x="319.635" y="165.03" width="111.45" height="2.88234" fill="#DEEAFF"/>
<rect x="319.635" y="174.256" width="97.0386" height="2.88234" fill="#DEEAFF"/>
<rect x="319.635" y="182.409" width="82.627" height="2.88234" fill="#DEEAFF"/>
<g filter="url(#filter0_f_556_1207)">
<path d="M458.94 188.721C458.94 188.721 464.26 136.76 489.205 129.393C512.26 122.584 504.216 172.678 526.435 163.501C550.198 153.686 539.931 88.479 563.905 79.1926C584.046 71.391 613.248 129.786 633.802 123.148C653.437 116.808 652.537 68.1436 652.537 68.1436" stroke="#1E6AD6" stroke-opacity="0.12"/>
<path d="M480.318 188.241C480.318 188.241 485.638 136.28 510.582 128.913C533.638 122.104 543.848 164.752 566.067 155.575C589.83 145.76 558.906 101.21 582.881 91.9232C603.022 84.1216 613.728 118.977 634.282 112.34C653.917 105.999 664.307 68.8645 664.307 68.8645" stroke="#FF7C0D" stroke-opacity="0.12"/>
</g>
<path d="M454.864 183.286C454.864 183.286 460.184 131.325 485.128 123.958C508.184 117.149 500.139 167.243 522.358 158.066C546.121 148.251 535.854 83.0438 559.829 73.7573C579.97 65.9558 609.171 124.35 629.725 117.713C649.36 111.372 648.461 62.7084 648.461 62.7084" stroke="#1E6AD6"/>
<path d="M476.241 182.806C476.241 182.806 481.561 130.845 506.506 123.478C529.561 116.669 539.771 159.317 561.991 150.14C585.754 140.325 554.83 95.7744 578.804 86.488C598.945 78.6865 609.652 113.542 630.206 106.905C649.841 100.564 660.23 63.4293 660.23 63.4293" stroke="#FF7C0D"/>
<path d="M271.209 144.985L279.096 125.268L292.227 141.957L271.209 144.985Z" fill="#0176FF"/>
<path d="M448.43 33.1068L446.438 20.6624L458.211 25.1597L448.43 33.1068Z" fill="url(#paint1_linear_556_1207)"/>
<path d="M581.592 209.868C582.556 211.331 584.484 215.178 584.484 218.857C584.484 223.456 593.368 220.947 593.988 219.902C594.608 218.857 599.773 220.529 599.359 224.71C598.946 228.891 601.632 233.281 607.417 230.773C613.202 228.264 614.028 230.773 614.442 234.118C614.855 237.462 615.475 238.717 616.921 239.762" stroke="#0199FF" stroke-width="4.75524"/>
<path fill-rule="evenodd" clip-rule="evenodd" d="M203.267 63.2558C199.806 66.0022 199.226 71.0343 201.973 74.4953L210.918 85.7685C213.664 89.2295 218.696 89.8089 222.157 87.0626L233.294 78.2258L239.549 80.6984L238.563 74.0449L249.5 65.3663C252.961 62.6199 253.541 57.5878 250.794 54.1268L241.849 42.8536C239.103 39.3926 234.071 38.8132 230.61 41.5595L203.267 63.2558Z" fill="url(#paint2_linear_556_1207)"/>
<path fill-rule="evenodd" clip-rule="evenodd" d="M653.443 39.5406C662.795 38.7211 670.068 32.4411 670.068 24.8156C670.068 16.6332 661.694 10 651.363 10C641.033 10 632.659 16.6332 632.659 24.8156C632.659 32.1193 639.331 38.1886 648.111 39.4079L650.815 44.0924L653.443 39.5406Z" fill="url(#paint3_linear_556_1207)"/>
<path fill-rule="evenodd" clip-rule="evenodd" d="M304.549 255.735C306.34 246.52 302.309 237.797 294.979 235.694C287.114 233.438 278.429 239.659 275.58 249.589C272.732 259.519 276.799 269.397 284.664 271.654C291.685 273.667 299.358 268.927 302.951 260.824L308.2 259.516L304.549 255.735Z" fill="#FF7C0D"/>
<path d="M530.604 514.975L531.218 526.446L542.075 527.061L541.255 513.951L530.604 514.975Z" fill="#FFB27D"/>
<path d="M485.128 527.47L487.381 513.541L499.671 515.385L494.141 530.133L485.128 527.47Z" fill="#FFB27D"/>
<path d="M480.214 536.074C480.05 527.225 483.15 524.466 484.721 524.193C487.67 530.584 494.826 527.812 498.036 525.627C499.811 527.812 505.164 532.755 512.374 535.05C520.978 539.147 519.134 542.834 512.374 543.858C502.214 544.677 492.983 539.693 489.637 537.098L489.227 538.942C487.998 538.737 484.475 537.877 480.214 536.074Z" fill="#2555A5"/>
<path d="M480.42 535.869V532.796L489.638 536.278L489.024 539.146L480.42 535.869Z" fill="#133A7A"/>
<path d="M527.735 531.978C525.769 528.045 528.008 524.194 529.374 522.76C534.618 525.546 539.07 523.716 541.254 522.35C541.869 522.35 544.573 523.088 544.737 523.58C548.424 526.857 553.545 528.496 556.413 528.905C559.28 529.315 559.28 528.701 563.172 531.159C569.727 536.485 554.774 537.714 554.569 537.714C554.364 537.714 543.508 538.328 541.664 536.485C540.189 535.01 537.499 534.641 536.338 534.641V536.689L527.735 535.665V531.978Z" fill="#2555A5"/>
<path d="M527.77 535.61L527.77 532.706L536.339 534.436L536.339 536.689L527.77 535.61Z" fill="#133A7A"/>
<path d="M420.808 329.799C426.708 329.471 433.918 331.711 436.786 332.872L441.907 326.726C439.859 325.839 435.516 323.531 434.533 321.4C433.304 318.737 432.894 315.87 426.134 313.002C419.375 310.134 421.833 312.797 425.93 315.87C429.207 318.328 426.271 318.055 424.291 317.713L416.097 314.436C408.928 311.568 407.904 312.592 414.458 316.279C418.817 318.731 415.073 318.328 411.181 316.894C404.79 314.764 406.879 317.235 408.723 318.738L412.82 320.991C412.888 321.059 412.492 321.073 410.361 320.581C402.987 319.762 406.606 322.015 409.337 323.244C411.386 323.722 415.073 324.76 413.434 325.088C406.06 323.777 407.63 325.634 409.337 326.726C411.864 327.546 417.695 329.307 420.808 329.799Z" fill="#FFB27D"/>
<path d="M508.89 294.156C504.793 283.832 524.39 288.762 534.7 292.517C535.246 292.858 536.011 294.402 534.7 297.843C529.579 306.651 516.059 304.193 508.89 294.156Z" fill="white"/>
<path d="M525.071 300.097L527.12 297.434L530.602 299.482L529.373 301.735L537.157 331.232L525.071 333.281L527.12 301.735L525.071 300.097Z" fill="#545272"/>
<path d="M511.348 292.314L512.987 277.36L531.013 284.53C531.013 287.124 531.136 293.051 531.627 296.001C526.22 302.392 515.855 296.205 511.348 292.314Z" fill="#FFB27D"/>
<path d="M538.796 272.649C539.615 260.194 538.045 254.486 537.157 253.189C519.95 240.489 504.383 264.25 510.937 276.745C517.492 289.241 528.144 289.65 531.217 288.831C534.289 288.012 537.772 288.217 538.796 272.649Z" fill="#FFB27D"/>
<path d="M508.275 255.646C505.237 268.303 510.119 276.54 512.577 278.998L513.806 274.901C513.533 275.311 512.536 274.819 510.733 269.575C509.709 262.201 514.625 266.298 515.854 267.937C517.084 266.503 518.722 257.899 518.722 256.261C525.605 257.408 534.7 255.783 538.387 254.827C537.977 252.164 535.724 250.115 533.47 247.657C531.627 245.404 511.963 240.283 508.275 255.646Z" fill="#545272"/>
<path d="M603.527 322.22C602.216 324.514 597.928 328.775 595.948 330.618L598.816 336.354L611.516 336.969C614.52 335.944 621.348 333.404 624.626 331.438C627.903 329.471 625.581 329.663 624.011 330.004L621.143 330.618C621.553 330.004 623.151 328.324 626.264 326.522C629.378 324.719 626.469 324.678 624.626 324.883L620.529 326.522C621.689 325.497 624.257 323.203 625.24 322.22C627.084 318.123 621.758 322.22 621.143 322.834C620.652 323.326 618.48 324.405 617.456 324.883C617.524 324.541 618.48 322.916 621.758 319.147C625.24 313.821 619.709 317.713 616.022 321.196C613.4 324.145 609.331 324.2 607.624 323.859C607.76 323.517 608.402 322.343 609.877 320.376C613.564 311.978 605.166 319.352 603.527 322.22Z" fill="#FFB27D"/>
<path d="M494.142 449.836V393.504L547.196 381.419L549.245 391.866V454.957C548.016 474.143 545.558 513.787 545.558 518.867C542.444 521.489 532.516 519.96 527.941 518.867C527.532 500.158 526.712 461.88 526.712 458.439C524.582 456.8 522.957 444.919 522.411 439.184L516.06 466.223C511.964 482.815 503.319 517.515 501.517 523.578C495.453 523.906 487.519 519.755 484.31 517.638C484.993 508.898 487.096 488.755 490.046 478.104C492.995 467.452 494.006 454.82 494.142 449.836Z" fill="#1D468A"/>
<path d="M526.711 418.289C525.891 419.928 523.365 432.355 522.204 438.364C523.092 441.983 525.236 448.688 526.711 446.557C528.554 443.894 527.735 416.241 526.711 418.289Z" fill="#173870"/>
<path d="M529.578 392.89C528.103 396.986 527.325 399.649 526.301 399.445L528.144 409.891C529.715 404.634 532.2 393.873 529.578 392.89Z" fill="#173870"/>
<path d="M436.174 320.99C433.224 323.612 430.165 330.003 429.004 332.871C434.876 336.763 449.079 345.817 458.911 350.897C468.743 355.977 479.259 347.005 483.287 341.884L491.686 330.412V401.492C491.344 401.288 490.989 401.083 492.3 401.902C507.049 409.071 526.304 402.517 531.425 392.07C542.896 404.032 549.86 398.829 551.909 394.733L546.788 336.353C548.29 338.538 553.793 344.506 563.79 350.897C573.786 356.468 584.888 351.853 589.19 348.848C593.287 346.185 602.095 340.45 604.553 338.811C604.389 335.697 600.798 329.866 599.022 327.34L574.646 333.075C571.369 329.593 563.216 320.211 556.825 310.543C551.253 300.383 543.032 295.658 539.618 294.565L528.147 328.364C522.002 315.937 508.155 291.493 501.928 293.131C494.144 295.18 490.252 297.433 484.926 302.144C480.665 305.914 469.768 323.243 464.851 331.437C456.863 328.501 439.943 322.301 436.174 320.99Z" fill="#F99744"/>
<path d="M533.88 303.578C535.027 296.04 532.173 292.517 530.602 291.697C530.739 291.629 531.094 291.37 531.421 290.878C533.88 291.206 538.591 294.155 540.639 295.589L536.542 306.856C536.747 307.47 537.567 308.822 539.205 309.314C537.239 316.688 532.241 326.862 529.988 331.027C530.807 325.018 532.732 311.116 533.88 303.578Z" fill="#CD7123"/>
<path d="M502.335 292.926C502.827 291.615 507.866 289.512 510.324 288.625C509.3 292.517 515.036 306.856 519.542 312.796C524.786 319.515 528.282 328.432 529.374 332.051L511.963 312.796L515.036 310.338C511.075 305.353 502.991 294.893 502.335 292.926Z" fill="#CD7123"/>
<path d="M498.238 321.605C497.911 322.752 493.732 327.819 491.683 330.209V333.486C494.141 330.96 498.894 325.047 498.238 321.605Z" fill="#C67633"/>
<path d="M545.352 308.29L546.786 335.739L550.883 340.655C551.019 340.791 551.211 340.491 550.883 338.197C551.047 329.839 547.264 314.776 545.352 308.29Z" fill="#C67633"/>
<path d="M513.807 267.732C512.852 267.39 511.226 267.404 512.374 270.19C513.521 272.976 513.944 273.399 514.012 273.263" stroke="#545272"/>
<path d="M512.781 280.432C516.742 284.051 525.932 290.797 531.012 288.83C527.53 293.132 512.781 289.445 512.781 280.432Z" fill="#EC9F6A"/>
<path d="M852.076 558.763L842.089 504.938L845.137 503.045L856.071 558.763H852.076Z" fill="url(#paint4_linear_556_1207)"/>
<path d="M818.118 559.708L826.528 515.029L822.639 516.501L813.913 559.708H818.118Z" fill="url(#paint5_linear_556_1207)"/>
<path d="M787.106 558.763L779.748 521.338H776.173L783.322 558.763H787.106Z" fill="url(#paint6_linear_556_1207)"/>
<path d="M733.822 544.669L743.389 497.257H746.858L737.291 544.669H733.822Z" fill="url(#paint7_linear_556_1207)"/>
<path d="M858.712 455.827C852.091 411.761 834.967 398.792 825.138 398.049C781.53 389.884 765.921 429.846 761.708 436.898C757.496 443.95 757.62 462.137 742.258 488.984C726.896 515.832 736.752 492.21 738.486 510.072C861.183 557.379 863.693 488.984 858.712 455.827Z" fill="url(#paint8_linear_556_1207)"/>
<path d="M839.829 446.89C837.054 409.128 819.68 398.426 811.34 397.795C774.335 390.857 761.089 424.813 757.514 430.806C753.94 436.798 754.045 452.252 741.009 475.064C727.974 497.877 733.65 511.754 741.85 513.856C838.568 535.513 841.9 475.064 839.829 446.89Z" fill="url(#paint9_linear_556_1207)"/>
<path d="M776.034 499.951C776.739 500.005 840.916 485.514 805.322 486.143C776.847 486.646 773.932 495.558 776.034 499.951Z" fill="#D0A85B"/>
<path d="M69.183 544.705L79.4119 489.577L76.2894 487.639L65.0915 544.705H69.183Z" fill="url(#paint10_linear_556_1207)"/>
<path d="M103.963 545.673L95.3491 499.913L99.333 501.42L108.27 545.673H103.963Z" fill="url(#paint11_linear_556_1207)"/>
<path d="M135.723 544.704L143.261 506.373H146.921L139.6 544.704H135.723Z" fill="url(#paint12_linear_556_1207)"/>
<path d="M190.299 530.27L180.5 481.71H176.947L186.745 530.27H190.299Z" fill="url(#paint13_linear_556_1207)"/>
<path d="M62.3897 439.278C69.1708 394.145 86.7093 380.862 96.7756 380.101C141.439 371.738 157.427 412.667 161.741 419.89C166.055 427.113 165.928 445.74 181.662 473.238C197.396 500.735 187.301 476.541 185.525 494.835C59.8582 543.288 57.2872 473.238 62.3897 439.278Z" fill="url(#paint14_linear_556_1207)"/>
<path d="M81.7301 430.125C84.5726 391.449 102.367 380.488 110.909 379.842C148.81 372.735 162.376 407.514 166.037 413.651C169.698 419.788 169.591 435.616 182.942 458.981C196.293 482.346 190.479 496.558 182.08 498.712C83.0221 520.892 79.6092 458.981 81.7301 430.125Z" fill="url(#paint15_linear_556_1207)"/>
<path d="M147.07 484.47C146.347 484.525 80.6171 469.683 117.073 470.327C146.237 470.842 149.223 479.97 147.07 484.47Z" fill="#D0A85B"/>
<path d="M733.002 577.425C711.677 586.353 717.178 569.007 729.636 565.64L720.208 490.892L743.777 501.009L738.839 567.692C738.54 568.382 737.671 574.666 733.002 577.425Z" fill="#FFB27D"/>
<path d="M707.464 576.188C701.997 580.856 705.945 581.873 708.603 581.798L739.585 581.125L740.411 571.925C741.094 570.653 738.727 565.639 728.423 571.925C725.596 573.649 721.892 573.048 720.905 569.007C718.703 569.456 712.931 571.521 707.464 576.188Z" fill="#50246B"/>
<path d="M685.935 552.332L710.781 490.898C711.01 490.668 725.58 496.91 733.003 500.605C720.222 520.08 694.063 559.814 691.675 562.955C688.69 566.881 690.757 569.652 690.297 571.73C689.379 571.73 687.313 572.423 675.374 575.656C663.434 578.889 671.011 571.037 676.522 567.804C680.93 565.218 684.634 556.412 685.935 552.332Z" fill="#FFB27D"/>
<path d="M660.325 576.189C654.858 580.856 658.807 581.874 661.464 581.799L692.447 581.126V570.579C693.13 569.307 691.854 567.796 681.284 571.925C670.714 576.054 671.868 571.701 673.766 569.008C671.564 569.457 665.793 571.521 660.325 576.189Z" fill="#50246B"/>
<path d="M709.605 486.49C707.573 490.568 709.682 492.36 710.99 492.746L745.39 512.441C748.084 505.258 738.695 484.636 773.557 489.965C815.484 492.004 821.656 462.701 819.501 447.794C808.727 447.871 786.67 448.443 784.639 450.111C782.099 452.197 750.239 462.624 735.694 464.246C721.148 465.867 712.144 481.392 709.605 486.49Z" fill="url(#paint16_linear_556_1207)"/>
<path d="M778.794 453.058C780.838 452.696 780.11 447.622 779.491 445.13L819.667 441.733C819.822 442.639 820.038 445.357 819.667 448.981C814.558 452.831 785.296 453.511 778.794 453.058Z" fill="#8B49B3"/>
<path d="M780.143 447.12C770.106 415.948 772.399 398.987 774.8 394.403C774.8 371.557 796.495 354.905 807.415 352.843L819.873 443.682C812.98 444.522 795.384 446.386 780.143 447.12Z" fill="url(#paint17_linear_556_1207)"/>
<path d="M746.827 408.062L722.902 394.125L729.803 382.473L741.306 389.556L759.939 387.956L746.827 408.062Z" fill="url(#paint18_linear_556_1207)"/>
<path d="M695.593 369.696C697.064 372.621 704.938 377.009 708.692 378.837C711.817 381.031 720.871 389.807 725.008 393.921L730.983 385.236C729.374 384.17 724.824 381.397 719.492 378.837C712.598 376.78 711.449 373.581 708.002 368.096C704.555 362.611 706.623 367.868 706.164 369.239C705.796 370.336 703.866 368.934 702.946 368.096C701.338 366.344 697.615 363.206 695.593 364.668C693.065 366.496 693.754 366.039 695.593 369.696Z" fill="#FFB27D"/>
<path d="M729.862 382.473C724.117 387.187 722.83 392.293 722.905 394.257L726.72 396.614L733.677 385.301C733.302 384.987 732.016 383.981 729.862 382.473Z" fill="#4586F2"/>
<path d="M681.924 406.482C678.084 409.169 680.324 409.841 681.924 409.841C683.753 409.393 687.639 408.453 688.553 408.274C689.696 408.05 692.896 410.961 694.725 411.857C696.188 412.573 701.735 411.558 704.325 410.961L725.812 411.857L726.269 402.675L705.926 405.586C704.478 406.184 700.76 406.93 697.468 405.139C692.896 401.108 686.724 403.123 681.924 406.482Z" fill="#FFB27D"/>
<path d="M778.614 366.238C777.468 361.931 774.318 355.903 772.885 353.427L779.227 346.557L792.116 359.369L780.046 373.48C780.046 372.861 779.759 370.546 778.614 366.238Z" fill="#FFB27D"/>
<path d="M786.65 362.412C783.957 361.444 780.066 365.399 778.794 367.658C778.869 367.981 780.186 371.561 780.365 372.336C782.161 371.699 787.885 366.648 790.915 364.348C790.616 364.106 789.344 363.38 786.65 362.412Z" fill="white"/>
<path d="M792.263 374.416C788.349 363.459 772.16 373.96 764.41 381.264C758.272 386.134 745.812 396.101 745.075 397.014C744.338 397.928 742.159 399.221 741.162 399.754L728.962 401.58V413.45H753.131L782.825 395.873C792.032 390.166 791.342 385.829 792.263 374.416Z" fill="url(#paint19_linear_556_1207)"/>
<path d="M723.615 402.015L722.902 412.764L730.983 413.45V401.329L723.615 402.015Z" fill="#4586F2"/>
<path d="M776.732 361.941C778.527 362.299 780.837 357.545 781.51 355.531L774.809 358.095C775.033 358.692 776.013 360.51 776.732 361.941Z" fill="#E4A579"/>
<path d="M785.717 353.473C767.158 366.232 763.429 353.55 763.883 345.615C763.201 339.297 762.564 325.598 765.475 321.345C769.114 316.029 808.914 337.525 785.717 353.473Z" fill="#FFB27D"/>
<path d="M784.367 356.995C783.626 351.798 785.293 342.457 786.22 338.436C790.776 337.198 801.045 334.863 805.678 335.42C810.311 335.976 814.712 346.942 816.334 352.355C817.106 358.696 818.465 372.539 817.723 377.179C815.87 383.906 817.955 384.834 819.577 389.706C821.198 394.578 821.893 400.61 812.396 402.466C804.798 403.951 803.053 397.207 803.13 393.65V377.875C803.13 371.379 799.655 367.203 793.632 365.579C787.61 363.955 785.293 363.491 784.367 356.995Z" fill="#0F2B53"/>
<path d="M768.707 324.874C764.467 323.596 763.253 331.647 763.176 335.832C761.563 334.006 760.411 327.157 760.641 324.874C760.872 322.592 764.098 317.341 767.324 316.884C769.721 318.163 773.546 316.808 775.159 315.972C778.309 314.83 786.036 313.232 791.751 315.972C798.895 319.396 803.504 327.842 803.043 330.81C802.582 333.777 804.426 333.321 806.269 336.288C807.422 339.484 800.969 343.365 793.825 344.05C786.682 344.735 776.081 336.288 774.698 331.266C773.316 326.244 772.394 324.874 768.707 324.874Z" fill="#163561"/>
<path d="M189.748 294.404C187.92 292.054 187.899 286.679 188.116 284.286C188.66 282.98 188.704 278.345 184.525 270.25C179.303 260.131 149.926 297.995 150.905 303.217C151.689 307.395 149.273 314.315 147.968 317.253L166.573 325.413C167.443 320.517 170.555 311.378 176.039 313.989C181.522 316.6 184.417 312.901 185.178 310.725C185.613 308.549 187.006 303.544 189.095 300.932C193.339 299.3 192.033 297.342 189.748 294.404Z" fill="#F7B39D"/>
<path d="M191.38 274.167C196.603 281.479 190.945 285.265 187.464 286.244C187.355 282.872 186.68 275.734 184.853 274.167C178.977 274.82 177.345 277.758 174.407 280.696C172.057 283.046 171.035 288.638 170.817 291.141C163.962 280.369 161.351 291.141 162.33 294.078C163.31 297.016 156.455 298.322 156.455 300.28C156.455 302.239 154.823 304.85 153.844 304.85C152.864 304.85 152.212 307.788 151.559 309.746C149.6 309.746 147.315 299.954 146.336 298.322C145.553 297.016 144.051 289.726 143.399 286.244C142.093 282.654 141.048 273.971 147.315 267.965C153.583 261.959 164.942 262.634 169.838 263.722C173.755 265.028 183.351 267.509 190.402 266.986C199.215 266.333 194.319 272.535 191.38 274.167Z" fill="#1C1717"/>
<path d="M162.657 304.85C163.44 307.2 171.47 311.487 175.387 313.337C171.731 312.553 169.076 316.71 168.206 318.886C166.465 316.492 162.918 310.334 162.657 304.85Z" fill="#EFA069"/>
<path d="M148.295 316.6L166.9 325.087C164.615 329.33 167.879 335.205 170.49 343.039C174.146 348.001 175.713 367.738 176.039 376.986C175.495 384.82 173.624 401.401 170.49 405.057C166.573 409.627 168.858 424.642 168.858 432.475C168.858 440.309 159.392 436.392 155.476 432.475C151.559 428.558 141.766 426.926 137.849 435.413C133.933 443.9 126.425 439.004 117.612 439.656C110.562 440.179 114.674 422.683 117.612 413.87C118.156 413.544 119.701 407.668 121.529 386.778C123.618 359.621 130.668 339.993 133.933 333.573C135.891 330.962 140.461 325.152 143.072 322.802C146.206 322.28 147.859 318.45 148.295 316.6Z" fill="#9566FA"/>
<path d="M162.029 396.501L169.863 406.947C170.951 409.123 174.824 413.083 181.614 411.516C188.925 411.516 199.457 410.646 203.809 410.211C208.923 409.775 219.934 409.166 223.067 410.211C226.984 411.516 238.082 412.169 241.346 412.495C244.61 412.822 255.056 407.599 247.222 408.579C246.073 408.579 245.003 408.71 244.164 408.865C250.057 407.401 257.407 405.161 248.527 405.641C245.655 406.424 244.067 406.403 243.631 406.294C250.704 403.9 261.453 399.831 247.875 402.703C244.284 402.703 261.257 397.807 245.589 399.766C233.055 401.332 233.186 397.589 234.818 395.522C237.212 395.305 241.607 394.282 240.041 391.932C238.082 388.994 239.388 393.564 233.512 392.258C228.812 391.214 222.197 395.522 219.477 397.807L183.898 395.522L176.717 385.73L162.029 396.501Z" fill="#F7B39D"/>
<path d="M134.912 372.416C125.447 318.232 162.984 321.496 173.102 367.52C173.865 370.653 180.601 381.664 183.874 386.778C179.413 390.259 168.271 398.79 159.393 405.057C152.343 397.745 140.135 380.25 134.912 372.416Z" fill="#8959EF"/>
<path d="M210.337 557.421L205.114 542.08L217.191 539.469L221.108 557.421H210.337Z" fill="#F7B39D"/>
<path d="M204.789 545.997L182.593 469.943H211.643L220.456 543.059L204.789 545.997Z" fill="#2D4364"/>
<path d="M207.242 565.082C205.03 557.261 207.138 554.088 208.469 553.478C212.581 558.465 218.289 554.332 220.629 551.642C222.716 553.168 228.624 556.308 235.563 556.662C244.161 558.291 243.384 561.996 237.62 564.485C228.789 567.585 219.426 565.314 215.849 563.791L215.916 565.524C214.776 565.629 211.447 565.688 207.242 565.082Z" fill="#142743"/>
<path d="M225.677 556.115L224.371 539.142H237.101L235.143 559.379L225.677 556.115Z" fill="#F7B39D"/>
<path d="M223.487 562.248C221.332 554.411 223.463 551.253 224.799 550.653C228.875 555.67 234.612 551.578 236.971 548.905C239.047 550.446 244.933 553.629 251.869 554.032C260.454 555.723 259.651 559.423 253.87 561.869C245.016 564.906 235.67 562.568 232.104 561.019L232.158 562.752C231.018 562.849 227.688 562.884 223.487 562.248Z" fill="#193052"/>
<path d="M170.516 435.018C144.926 426.923 129.932 422.396 114.373 424.572C104.255 474.299 134.61 479.083 151.91 478.43C169.21 477.777 176.651 478.43 189.448 478.43C201.85 478.43 201.524 475.605 212.622 484.631L222.742 542.079L238.408 543.059C240.693 523.257 243.78 484.548 245.085 475.931C246.717 465.16 245.412 449.818 230.723 448.839C218.973 448.056 178.459 436.867 170.516 435.018Z" fill="#3C5780"/>
<path d="M766.479 411.525H182.992C181.025 411.525 179.43 413.12 179.43 415.087C179.43 417.054 181.025 418.649 182.992 418.649H766.479C768.86 418.649 770.57 416.358 769.894 414.075C769.446 412.563 768.056 411.525 766.479 411.525Z" fill="#A4C0EE"/>
<path d="M196.582 571.155L190.25 569.308L221.912 416.802H230.883L196.582 571.155Z" fill="#A4C0EE"/>
<path d="M289.983 415.482H280.221L314.521 571.682L322.965 568.78L289.983 415.482Z" fill="#A4C0EE"/>
<path d="M647.239 415.746H638.005L605.551 569.571L613.994 571.418L647.239 415.746Z" fill="#A4C0EE"/>
<path d="M730.88 571.419L696.843 416.538H706.078L738.796 569.836L730.88 571.419Z" fill="#A4C0EE"/>
<path d="M380.352 569.853L375.041 546.007L393.008 542.8L395.862 569.478L380.352 569.853Z" fill="#FFB27D"/>
<path d="M431.001 571.547L429.236 543.223L446.131 540.884L448.401 569.988L431.001 571.547Z" fill="#FFB27D"/>
<path d="M428.985 585.781C426.49 583.286 427.946 568.626 428.985 561.607C433.491 561.088 443.802 560.048 449 560.048C449 569.665 460.697 570.705 469.535 575.124C476.605 578.659 477.333 582.835 476.813 584.481C473.26 584.915 464.804 585.781 459.397 585.781C452.639 585.781 451.859 583.442 447.7 581.362C444.373 579.699 444.061 583.615 444.321 585.781H428.985Z" fill="#163561"/>
<path d="M444.322 583.443L428.207 582.923L428.726 586.042H444.322V583.443Z" fill="#0A1F3D"/>
<path d="M379.012 585.947C376.266 583.732 376.153 569 376.44 561.911C380.865 560.915 391.006 558.784 396.175 558.231C397.199 567.793 408.94 567.583 418.197 571.036C425.603 573.799 426.772 577.874 426.43 579.566C422.944 580.375 414.627 582.136 409.252 582.711C402.532 583.43 401.508 581.187 397.151 579.562C393.666 578.262 393.772 582.189 394.261 584.316L379.012 585.947Z" fill="#163561"/>
<path d="M393.884 581.126L377.84 582.726L378.765 585.75L394.225 583.703L393.884 581.126Z" fill="#0A1F3D"/>
<path d="M426.891 459.047C416.941 432.513 364.702 437.423 339.827 443.195C337.551 448.479 333.096 461.925 333.486 473.436C333.974 487.825 399.333 473.924 405.674 484.898C410.746 493.678 421.932 530.503 426.891 547.819H449.084C450.303 527.577 441.036 491.727 441.036 489.044C441.036 486.362 435.915 472.948 426.891 459.047Z" fill="url(#paint20_linear_556_1207)"/>
<path d="M406.652 397.835C402.359 396.079 394.133 400.03 390.556 402.225C391.694 404.582 394.165 409.395 394.945 409.785C395.921 410.273 398.116 412.468 399.823 411.492C401.53 410.517 404.457 409.297 407.383 409.785C410.31 410.273 411.529 409.297 413.236 407.346C414.943 405.395 414.7 407.59 416.894 409.297C419.089 411.004 422.991 411.98 420.796 405.395C418.602 398.81 412.017 400.03 406.652 397.835Z" fill="#FFB27D"/>
<path d="M350.801 486.117C313.731 474.801 288.53 457.34 278.613 449.78C278.613 414.466 335.355 448.56 363.726 470.021C368.685 474.167 379.871 484.752 384.943 493.921C390.016 503.091 394.698 534.161 396.406 548.55H372.506L366.653 528.308C363.076 515.383 354.898 488.849 350.801 486.117Z" fill="url(#paint21_linear_556_1207)"/>
<path d="M293.005 357.107C295.737 351.449 295.769 342.718 295.444 339.06C289.835 291.748 320.563 294.43 328.368 302.966C336.172 311.502 330.806 326.378 330.806 335.402C330.806 344.425 322.514 341.743 319.1 341.743C316.905 353.936 322.514 359.302 323.002 362.228C316.564 370.813 299.021 365.805 291.054 362.228C290.567 362.879 290.274 362.765 293.005 357.107Z" fill="#FFB27D"/>
<path d="M270.81 365.155C251.885 384.275 268.127 430.189 278.614 450.756C313.732 463.438 348.851 450.756 353.973 442.464C359.094 434.172 357.631 389.055 351.046 373.691C344.461 358.326 334.219 357.107 321.781 357.107C307.148 369.594 295.849 362.31 292.028 357.107C289.914 357.676 282.712 360.082 270.81 365.155Z" fill="url(#paint22_linear_556_1207)"/>
<path d="M284.224 333.45C302.758 354.326 312.757 337.596 315.44 326.621C304.709 313.159 313.733 309.55 318.61 314.184H320.074L320.561 305.892C331.292 305.16 332.024 303.697 333.243 294.917C334.606 285.1 324.545 280.61 319.098 279.553C314.627 278.984 302.905 278.968 291.784 283.455C271.054 295.893 273.981 313.452 284.224 333.45Z" fill="#163561"/>
<path d="M339.584 404.906L330.56 383.2C326.252 371.25 323.634 351.106 347.632 366.129C357.664 389.539 360.58 396.776 360.915 397.894C364.544 399.774 372.397 399.281 384.945 397.833C389.334 399.784 391.285 401.003 392.749 401.003L396.651 411.002C385.839 415.067 361.923 423.538 352.753 424.903C346.51 420.026 341.372 409.539 339.584 404.906Z" fill="url(#paint23_linear_556_1207)"/>
<path d="M268.501 578.914L280.366 514.967L276.744 512.719L263.755 578.914H268.501Z" fill="url(#paint24_linear_556_1207)"/>
<path d="M308.844 580.039L298.852 526.958L303.474 528.706L313.84 580.039H308.844Z" fill="url(#paint25_linear_556_1207)"/>
<path d="M323.883 581.93L332.626 537.467H336.872L328.379 581.93H323.883Z" fill="url(#paint26_linear_556_1207)"/>
<path d="M369.689 582.513L358.324 526.184H354.202L365.568 582.513H369.689Z" fill="url(#paint27_linear_556_1207)"/>
<path d="M273.252 463.047C280.942 413.753 300.832 399.245 312.247 398.415C362.898 389.281 370.186 432.356 375.078 440.245C379.97 448.134 378.099 452.854 385.92 490.702C392.989 524.912 391.748 508.32 389.734 528.301C247.223 581.221 267.466 500.138 273.252 463.047Z" fill="url(#paint28_linear_556_1207)"/>
<line x1="61" y1="603.5" x2="860" y2="603.5" stroke="black"/>
<defs>
<filter id="filter0_f_556_1207" x="453.443" y="63.1349" width="216.345" height="130.637" filterUnits="userSpaceOnUse" color-interpolation-filters="sRGB">
<feFlood flood-opacity="0" result="BackgroundImageFix"/>
<feBlend mode="normal" in="SourceGraphic" in2="BackgroundImageFix" result="shape"/>
<feGaussianBlur stdDeviation="2.5" result="effect1_foregroundBlur_556_1207"/>
</filter>
<linearGradient id="paint0_linear_556_1207" x1="685.653" y1="226.917" x2="723.761" y2="235.23" gradientUnits="userSpaceOnUse">
<stop stop-color="#00A3FE"/>
<stop offset="1" stop-color="#0047FE"/>
</linearGradient>
<linearGradient id="paint1_linear_556_1207" x1="448.43" y1="33.1068" x2="453.623" y2="19.5125" gradientUnits="userSpaceOnUse">
<stop stop-color="#00A3FE"/>
<stop offset="1" stop-color="#0047FE"/>
</linearGradient>
<linearGradient id="paint2_linear_556_1207" x1="216.938" y1="52.4077" x2="239.449" y2="80.7774" gradientUnits="userSpaceOnUse">
<stop stop-color="#7FD1FF"/>
<stop offset="1" stop-color="#83A6FF"/>
</linearGradient>
<linearGradient id="paint3_linear_556_1207" x1="651.363" y1="10" x2="651.363" y2="44.0925" gradientUnits="userSpaceOnUse">
<stop stop-color="#7FD1FF"/>
<stop offset="1" stop-color="#83A6FF"/>
</linearGradient>
<linearGradient id="paint4_linear_556_1207" x1="856.119" y1="560.264" x2="853.959" y2="500.959" gradientUnits="userSpaceOnUse">
<stop offset="0.550331" stop-color="#7C8DB7"/>
<stop offset="1" stop-color="#A1ACBB"/>
</linearGradient>
<linearGradient id="paint5_linear_556_1207" x1="826.572" y1="560.912" x2="825.032" y2="513.343" gradientUnits="userSpaceOnUse">
<stop offset="0.550331" stop-color="#7C8DB7"/>
<stop offset="1" stop-color="#A1ACBB"/>
</linearGradient>
<linearGradient id="paint6_linear_556_1207" x1="787.144" y1="559.772" x2="785.897" y2="519.923" gradientUnits="userSpaceOnUse">
<stop offset="0.550331" stop-color="#7C8DB7"/>
<stop offset="1" stop-color="#A1ACBB"/>
</linearGradient>
<linearGradient id="paint7_linear_556_1207" x1="746.903" y1="545.947" x2="745.225" y2="495.47" gradientUnits="userSpaceOnUse">
<stop offset="0.550331" stop-color="#7C8DB7"/>
<stop offset="1" stop-color="#A1ACBB"/>
</linearGradient>
<linearGradient id="paint8_linear_556_1207" x1="796.923" y1="396.954" x2="796.923" y2="526.228" gradientUnits="userSpaceOnUse">
<stop stop-color="#F7CD7E"/>
<stop offset="1" stop-color="#EEBA59"/>
</linearGradient>
<linearGradient id="paint9_linear_556_1207" x1="786.743" y1="396.865" x2="786.743" y2="518.447" gradientUnits="userSpaceOnUse">
<stop stop-color="#FBE0B3"/>
<stop offset="1" stop-color="#FFCB6A"/>
</linearGradient>
<linearGradient id="paint10_linear_556_1207" x1="65.0417" y1="546.243" x2="67.2546" y2="485.502" gradientUnits="userSpaceOnUse">
<stop offset="0.550331" stop-color="#7C8DB7"/>
<stop offset="1" stop-color="#A1ACBB"/>
</linearGradient>
<linearGradient id="paint11_linear_556_1207" x1="95.3042" y1="546.906" x2="96.8817" y2="498.186" gradientUnits="userSpaceOnUse">
<stop offset="0.550331" stop-color="#7C8DB7"/>
<stop offset="1" stop-color="#A1ACBB"/>
</linearGradient>
<linearGradient id="paint12_linear_556_1207" x1="135.685" y1="545.737" x2="136.962" y2="504.923" gradientUnits="userSpaceOnUse">
<stop offset="0.550331" stop-color="#7C8DB7"/>
<stop offset="1" stop-color="#A1ACBB"/>
</linearGradient>
<linearGradient id="paint13_linear_556_1207" x1="176.901" y1="531.578" x2="178.62" y2="479.88" gradientUnits="userSpaceOnUse">
<stop offset="0.550331" stop-color="#7C8DB7"/>
<stop offset="1" stop-color="#A1ACBB"/>
</linearGradient>
<linearGradient id="paint14_linear_556_1207" x1="125.674" y1="378.98" x2="125.674" y2="511.383" gradientUnits="userSpaceOnUse">
<stop stop-color="#F7CD7E"/>
<stop offset="1" stop-color="#EEBA59"/>
</linearGradient>
<linearGradient id="paint15_linear_556_1207" x1="136.101" y1="378.889" x2="136.101" y2="503.414" gradientUnits="userSpaceOnUse">
<stop stop-color="#FBE0B3"/>
<stop offset="1" stop-color="#FFCB6A"/>
</linearGradient>
<linearGradient id="paint16_linear_556_1207" x1="764.317" y1="447.794" x2="764.317" y2="512.441" gradientUnits="userSpaceOnUse">
<stop stop-color="#3D8F7D"/>
<stop offset="1" stop-color="#44B09D"/>
</linearGradient>
<linearGradient id="paint17_linear_556_1207" x1="796.303" y1="352.843" x2="796.303" y2="447.12" gradientUnits="userSpaceOnUse">
<stop stop-color="#00A3FE"/>
<stop offset="1" stop-color="#0047FE"/>
</linearGradient>
<linearGradient id="paint18_linear_556_1207" x1="764.73" y1="370.455" x2="725.009" y2="412.834" gradientUnits="userSpaceOnUse">
<stop stop-color="#0045B7"/>
<stop offset="1" stop-color="#0750C9"/>
<stop offset="1" stop-color="#00348A"/>
</linearGradient>
<linearGradient id="paint19_linear_556_1207" x1="800.45" y1="349.121" x2="732.503" y2="421.555" gradientUnits="userSpaceOnUse">
<stop stop-color="#3E86FC"/>
<stop offset="1" stop-color="#0750C9"/>
<stop offset="1" stop-color="#00348A"/>
</linearGradient>
<linearGradient id="paint20_linear_556_1207" x1="391.328" y1="438.638" x2="391.328" y2="547.819" gradientUnits="userSpaceOnUse">
<stop stop-color="#3D8F7D"/>
<stop offset="1" stop-color="#44B09D"/>
</linearGradient>
<linearGradient id="paint21_linear_556_1207" x1="337.509" y1="434.504" x2="337.509" y2="548.55" gradientUnits="userSpaceOnUse">
<stop stop-color="#3D8F7D"/>
<stop offset="1" stop-color="#44B09D"/>
</linearGradient>
<linearGradient id="paint22_linear_556_1207" x1="309.572" y1="357.107" x2="309.572" y2="456.126" gradientUnits="userSpaceOnUse">
<stop stop-color="#00A3FE"/>
<stop offset="1" stop-color="#0047FE"/>
</linearGradient>
<linearGradient id="paint23_linear_556_1207" x1="349.177" y1="365.147" x2="376.1" y2="420.274" gradientUnits="userSpaceOnUse">
<stop stop-color="#4FC0FF"/>
<stop offset="1" stop-color="#0047FE"/>
</linearGradient>
<linearGradient id="paint24_linear_556_1207" x1="263.697" y1="580.697" x2="266.264" y2="510.24" gradientUnits="userSpaceOnUse">
<stop offset="0.550331" stop-color="#7C8DB7"/>
<stop offset="1" stop-color="#A1ACBB"/>
</linearGradient>
<linearGradient id="paint25_linear_556_1207" x1="298.8" y1="581.469" x2="300.63" y2="524.954" gradientUnits="userSpaceOnUse">
<stop offset="0.550331" stop-color="#7C8DB7"/>
<stop offset="1" stop-color="#A1ACBB"/>
</linearGradient>
<linearGradient id="paint26_linear_556_1207" x1="323.838" y1="583.128" x2="325.319" y2="535.786" gradientUnits="userSpaceOnUse">
<stop offset="0.550331" stop-color="#7C8DB7"/>
<stop offset="1" stop-color="#A1ACBB"/>
</linearGradient>
<linearGradient id="paint27_linear_556_1207" x1="354.148" y1="584.03" x2="356.142" y2="524.062" gradientUnits="userSpaceOnUse">
<stop offset="0.550331" stop-color="#7C8DB7"/>
<stop offset="1" stop-color="#A1ACBB"/>
</linearGradient>
<linearGradient id="paint28_linear_556_1207" x1="345.02" y1="397.191" x2="345.02" y2="541.8" gradientUnits="userSpaceOnUse">
<stop stop-color="#F7CD7E"/>
<stop offset="1" stop-color="#EEBA59"/>
</linearGradient>
</defs>
</svg>
